<?xml version="1.0" encoding="utf-8" standalone="no"?>
<!DOCTYPE svg PUBLIC "-//W3C//DTD SVG 1.1//EN"
  "http://www.w3.org/Graphics/SVG/1.1/DTD/svg11.dtd">
<!-- Created with matplotlib (https://matplotlib.org/) -->
<svg height="720pt" version="1.1" viewBox="0 0 1080 720" width="1080pt" xmlns="http://www.w3.org/2000/svg" xmlns:xlink="http://www.w3.org/1999/xlink">
 <defs>
  <style type="text/css">
*{stroke-linecap:butt;stroke-linejoin:round;}
  </style>
 </defs>
 <g id="figure_1">
  <g id="patch_1">
   <path d="M 0 720 
L 1080 720 
L 1080 0 
L 0 0 
z
" style="fill:#ffffff;"/>
  </g>
  <g id="axes_1">
   <g id="patch_2">
    <path d="M 135 630 
L 972 630 
L 972 86.4 
L 135 86.4 
z
" style="fill:#ffffff;"/>
   </g>
   <g id="patch_3">
    <path clip-path="url(#p3fe766427f)" d="M 135 625.47 
L 141.0796 625.47 
L 141.0796 616.41 
L 135 616.41 
z
" style="fill:#0000ff;"/>
   </g>
   <g id="patch_4">
    <path clip-path="url(#p3fe766427f)" d="M 135 607.35 
L 143.225341 607.35 
L 143.225341 598.29 
L 135 598.29 
z
" style="fill:#0000ff;"/>
   </g>
   <g id="patch_5">
    <path clip-path="url(#p3fe766427f)" d="M 135 589.23 
L 143.225341 589.23 
L 143.225341 580.17 
L 135 580.17 
z
" style="fill:#0000ff;"/>
   </g>
   <g id="patch_6">
    <path clip-path="url(#p3fe766427f)" d="M 135 571.11 
L 143.582965 571.11 
L 143.582965 562.05 
L 135 562.05 
z
" style="fill:#0000ff;"/>
   </g>
   <g id="patch_7">
    <path clip-path="url(#p3fe766427f)" d="M 135 552.99 
L 143.940588 552.99 
L 143.940588 543.93 
L 135 543.93 
z
" style="fill:#0000ff;"/>
   </g>
   <g id="patch_8">
    <path clip-path="url(#p3fe766427f)" d="M 135 534.87 
L 143.940588 534.87 
L 143.940588 525.81 
L 135 525.81 
z
" style="fill:#0000ff;"/>
   </g>
   <g id="patch_9">
    <path clip-path="url(#p3fe766427f)" d="M 135 516.75 
L 144.655835 516.75 
L 144.655835 507.69 
L 135 507.69 
z
" style="fill:#0000ff;"/>
   </g>
   <g id="patch_10">
    <path clip-path="url(#p3fe766427f)" d="M 135 498.63 
L 145.371082 498.63 
L 145.371082 489.57 
L 135 489.57 
z
" style="fill:#0000ff;"/>
   </g>
   <g id="patch_11">
    <path clip-path="url(#p3fe766427f)" d="M 135 480.51 
L 145.728706 480.51 
L 145.728706 471.45 
L 135 471.45 
z
" style="fill:#0000ff;"/>
   </g>
   <g id="patch_12">
    <path clip-path="url(#p3fe766427f)" d="M 135 462.39 
L 146.443953 462.39 
L 146.443953 453.33 
L 135 453.33 
z
" style="fill:#0000ff;"/>
   </g>
   <g id="patch_13">
    <path clip-path="url(#p3fe766427f)" d="M 135 444.27 
L 147.1592 444.27 
L 147.1592 435.21 
L 135 435.21 
z
" style="fill:#0000ff;"/>
   </g>
   <g id="patch_14">
    <path clip-path="url(#p3fe766427f)" d="M 135 426.15 
L 147.1592 426.15 
L 147.1592 417.09 
L 135 417.09 
z
" style="fill:#0000ff;"/>
   </g>
   <g id="patch_15">
    <path clip-path="url(#p3fe766427f)" d="M 135 408.03 
L 149.662565 408.03 
L 149.662565 398.97 
L 135 398.97 
z
" style="fill:#0000ff;"/>
   </g>
   <g id="patch_16">
    <path clip-path="url(#p3fe766427f)" d="M 135 389.91 
L 150.735435 389.91 
L 150.735435 380.85 
L 135 380.85 
z
" style="fill:#0000ff;"/>
   </g>
   <g id="patch_17">
    <path clip-path="url(#p3fe766427f)" d="M 135 371.79 
L 151.093059 371.79 
L 151.093059 362.73 
L 135 362.73 
z
" style="fill:#0000ff;"/>
   </g>
   <g id="patch_18">
    <path clip-path="url(#p3fe766427f)" d="M 135 353.67 
L 151.450683 353.67 
L 151.450683 344.61 
L 135 344.61 
z
" style="fill:#0000ff;"/>
   </g>
   <g id="patch_19">
    <path clip-path="url(#p3fe766427f)" d="M 135 335.55 
L 151.808306 335.55 
L 151.808306 326.49 
L 135 326.49 
z
" style="fill:#0000ff;"/>
   </g>
   <g id="patch_20">
    <path clip-path="url(#p3fe766427f)" d="M 135 317.43 
L 153.954047 317.43 
L 153.954047 308.37 
L 135 308.37 
z
" style="fill:#0000ff;"/>
   </g>
   <g id="patch_21">
    <path clip-path="url(#p3fe766427f)" d="M 135 299.31 
L 156.457412 299.31 
L 156.457412 290.25 
L 135 290.25 
z
" style="fill:#0000ff;"/>
   </g>
   <g id="patch_22">
    <path clip-path="url(#p3fe766427f)" d="M 135 281.19 
L 156.815036 281.19 
L 156.815036 272.13 
L 135 272.13 
z
" style="fill:#0000ff;"/>
   </g>
   <g id="patch_23">
    <path clip-path="url(#p3fe766427f)" d="M 135 263.07 
L 157.172659 263.07 
L 157.172659 254.01 
L 135 254.01 
z
" style="fill:#0000ff;"/>
   </g>
   <g id="patch_24">
    <path clip-path="url(#p3fe766427f)" d="M 135 244.95 
L 160.748894 244.95 
L 160.748894 235.89 
L 135 235.89 
z
" style="fill:#0000ff;"/>
   </g>
   <g id="patch_25">
    <path clip-path="url(#p3fe766427f)" d="M 135 226.83 
L 166.828495 226.83 
L 166.828495 217.77 
L 135 217.77 
z
" style="fill:#0000ff;"/>
   </g>
   <g id="patch_26">
    <path clip-path="url(#p3fe766427f)" d="M 135 208.71 
L 173.980965 208.71 
L 173.980965 199.65 
L 135 199.65 
z
" style="fill:#0000ff;"/>
   </g>
   <g id="patch_27">
    <path clip-path="url(#p3fe766427f)" d="M 135 190.59 
L 175.053836 190.59 
L 175.053836 181.53 
L 135 181.53 
z
" style="fill:#0000ff;"/>
   </g>
   <g id="patch_28">
    <path clip-path="url(#p3fe766427f)" d="M 135 172.47 
L 180.775812 172.47 
L 180.775812 163.41 
L 135 163.41 
z
" style="fill:#0000ff;"/>
   </g>
   <g id="patch_29">
    <path clip-path="url(#p3fe766427f)" d="M 135 154.35 
L 182.921554 154.35 
L 182.921554 145.29 
L 135 145.29 
z
" style="fill:#0000ff;"/>
   </g>
   <g id="patch_30">
    <path clip-path="url(#p3fe766427f)" d="M 135 136.23 
L 342.064026 136.23 
L 342.064026 127.17 
L 135 127.17 
z
" style="fill:#0000ff;"/>
   </g>
   <g id="patch_31">
    <path clip-path="url(#p3fe766427f)" d="M 135 118.11 
L 613.500288 118.11 
L 613.500288 109.05 
L 135 109.05 
z
" style="fill:#0000ff;"/>
   </g>
   <g id="patch_32">
    <path clip-path="url(#p3fe766427f)" d="M 135 99.99 
L 932.142857 99.99 
L 932.142857 90.93 
L 135 90.93 
z
" style="fill:#0000ff;"/>
   </g>
   <g id="matplotlib.axis_1">
    <g id="xtick_1">
     <g id="line2d_1">
      <defs>
       <path d="M 0 0 
L 0 3.5 
" id="m139f7073a6" style="stroke:#000000;stroke-width:0.8;"/>
      </defs>
      <g>
       <use style="stroke:#000000;stroke-width:0.8;" x="135" xlink:href="#m139f7073a6" y="630"/>
      </g>
     </g>
     <g id="text_1">
      <!-- 0 -->
      <defs>
       <path d="M 31.78125 66.40625 
Q 24.171875 66.40625 20.328125 58.90625 
Q 16.5 51.421875 16.5 36.375 
Q 16.5 21.390625 20.328125 13.890625 
Q 24.171875 6.390625 31.78125 6.390625 
Q 39.453125 6.390625 43.28125 13.890625 
Q 47.125 21.390625 47.125 36.375 
Q 47.125 51.421875 43.28125 58.90625 
Q 39.453125 66.40625 31.78125 66.40625 
z
M 31.78125 74.21875 
Q 44.046875 74.21875 50.515625 64.515625 
Q 56.984375 54.828125 56.984375 36.375 
Q 56.984375 17.96875 50.515625 8.265625 
Q 44.046875 -1.421875 31.78125 -1.421875 
Q 19.53125 -1.421875 13.0625 8.265625 
Q 6.59375 17.96875 6.59375 36.375 
Q 6.59375 54.828125 13.0625 64.515625 
Q 19.53125 74.21875 31.78125 74.21875 
z
" id="DejaVuSans-48"/>
      </defs>
      <g transform="translate(131.81875 644.598438)scale(0.1 -0.1)">
       <use xlink:href="#DejaVuSans-48"/>
      </g>
     </g>
    </g>
    <g id="xtick_2">
     <g id="line2d_2">
      <g>
       <use style="stroke:#000000;stroke-width:0.8;" x="313.811767" xlink:href="#m139f7073a6" y="630"/>
      </g>
     </g>
     <g id="text_2">
      <!-- 500 -->
      <defs>
       <path d="M 10.796875 72.90625 
L 49.515625 72.90625 
L 49.515625 64.59375 
L 19.828125 64.59375 
L 19.828125 46.734375 
Q 21.96875 47.46875 24.109375 47.828125 
Q 26.265625 48.1875 28.421875 48.1875 
Q 40.625 48.1875 47.75 41.5 
Q 54.890625 34.8125 54.890625 23.390625 
Q 54.890625 11.625 47.5625 5.09375 
Q 40.234375 -1.421875 26.90625 -1.421875 
Q 22.3125 -1.421875 17.546875 -0.640625 
Q 12.796875 0.140625 7.71875 1.703125 
L 7.71875 11.625 
Q 12.109375 9.234375 16.796875 8.0625 
Q 21.484375 6.890625 26.703125 6.890625 
Q 35.15625 6.890625 40.078125 11.328125 
Q 45.015625 15.765625 45.015625 23.390625 
Q 45.015625 31 40.078125 35.4375 
Q 35.15625 39.890625 26.703125 39.890625 
Q 22.75 39.890625 18.8125 39.015625 
Q 14.890625 38.140625 10.796875 36.28125 
z
" id="DejaVuSans-53"/>
      </defs>
      <g transform="translate(304.268017 644.598438)scale(0.1 -0.1)">
       <use xlink:href="#DejaVuSans-53"/>
       <use x="63.623047" xlink:href="#DejaVuSans-48"/>
       <use x="127.246094" xlink:href="#DejaVuSans-48"/>
      </g>
     </g>
    </g>
    <g id="xtick_3">
     <g id="line2d_3">
      <g>
       <use style="stroke:#000000;stroke-width:0.8;" x="492.623534" xlink:href="#m139f7073a6" y="630"/>
      </g>
     </g>
     <g id="text_3">
      <!-- 1000 -->
      <defs>
       <path d="M 12.40625 8.296875 
L 28.515625 8.296875 
L 28.515625 63.921875 
L 10.984375 60.40625 
L 10.984375 69.390625 
L 28.421875 72.90625 
L 38.28125 72.90625 
L 38.28125 8.296875 
L 54.390625 8.296875 
L 54.390625 0 
L 12.40625 0 
z
" id="DejaVuSans-49"/>
      </defs>
      <g transform="translate(479.898534 644.598438)scale(0.1 -0.1)">
       <use xlink:href="#DejaVuSans-49"/>
       <use x="63.623047" xlink:href="#DejaVuSans-48"/>
       <use x="127.246094" xlink:href="#DejaVuSans-48"/>
       <use x="190.869141" xlink:href="#DejaVuSans-48"/>
      </g>
     </g>
    </g>
    <g id="xtick_4">
     <g id="line2d_4">
      <g>
       <use style="stroke:#000000;stroke-width:0.8;" x="671.435301" xlink:href="#m139f7073a6" y="630"/>
      </g>
     </g>
     <g id="text_4">
      <!-- 1500 -->
      <g transform="translate(658.710301 644.598438)scale(0.1 -0.1)">
       <use xlink:href="#DejaVuSans-49"/>
       <use x="63.623047" xlink:href="#DejaVuSans-53"/>
       <use x="127.246094" xlink:href="#DejaVuSans-48"/>
       <use x="190.869141" xlink:href="#DejaVuSans-48"/>
      </g>
     </g>
    </g>
    <g id="xtick_5">
     <g id="line2d_5">
      <g>
       <use style="stroke:#000000;stroke-width:0.8;" x="850.247068" xlink:href="#m139f7073a6" y="630"/>
      </g>
     </g>
     <g id="text_5">
      <!-- 2000 -->
      <defs>
       <path d="M 19.1875 8.296875 
L 53.609375 8.296875 
L 53.609375 0 
L 7.328125 0 
L 7.328125 8.296875 
Q 12.9375 14.109375 22.625 23.890625 
Q 32.328125 33.6875 34.8125 36.53125 
Q 39.546875 41.84375 41.421875 45.53125 
Q 43.3125 49.21875 43.3125 52.78125 
Q 43.3125 58.59375 39.234375 62.25 
Q 35.15625 65.921875 28.609375 65.921875 
Q 23.96875 65.921875 18.8125 64.3125 
Q 13.671875 62.703125 7.8125 59.421875 
L 7.8125 69.390625 
Q 13.765625 71.78125 18.9375 73 
Q 24.125 74.21875 28.421875 74.21875 
Q 39.75 74.21875 46.484375 68.546875 
Q 53.21875 62.890625 53.21875 53.421875 
Q 53.21875 48.921875 51.53125 44.890625 
Q 49.859375 40.875 45.40625 35.40625 
Q 44.1875 33.984375 37.640625 27.21875 
Q 31.109375 20.453125 19.1875 8.296875 
z
" id="DejaVuSans-50"/>
      </defs>
      <g transform="translate(837.522068 644.598438)scale(0.1 -0.1)">
       <use xlink:href="#DejaVuSans-50"/>
       <use x="63.623047" xlink:href="#DejaVuSans-48"/>
       <use x="127.246094" xlink:href="#DejaVuSans-48"/>
       <use x="190.869141" xlink:href="#DejaVuSans-48"/>
      </g>
     </g>
    </g>
   </g>
   <g id="matplotlib.axis_2">
    <g id="ytick_1">
     <g id="line2d_6">
      <defs>
       <path d="M 0 0 
L -3.5 0 
" id="mcff6380000" style="stroke:#000000;stroke-width:0.8;"/>
      </defs>
      <g>
       <use style="stroke:#000000;stroke-width:0.8;" x="135" xlink:href="#mcff6380000" y="620.94"/>
      </g>
     </g>
     <g id="text_6">
      <!-- COSTA RICA -->
      <defs>
       <path d="M 64.40625 67.28125 
L 64.40625 56.890625 
Q 59.421875 61.53125 53.78125 63.8125 
Q 48.140625 66.109375 41.796875 66.109375 
Q 29.296875 66.109375 22.65625 58.46875 
Q 16.015625 50.828125 16.015625 36.375 
Q 16.015625 21.96875 22.65625 14.328125 
Q 29.296875 6.6875 41.796875 6.6875 
Q 48.140625 6.6875 53.78125 8.984375 
Q 59.421875 11.28125 64.40625 15.921875 
L 64.40625 5.609375 
Q 59.234375 2.09375 53.4375 0.328125 
Q 47.65625 -1.421875 41.21875 -1.421875 
Q 24.65625 -1.421875 15.125 8.703125 
Q 5.609375 18.84375 5.609375 36.375 
Q 5.609375 53.953125 15.125 64.078125 
Q 24.65625 74.21875 41.21875 74.21875 
Q 47.75 74.21875 53.53125 72.484375 
Q 59.328125 70.75 64.40625 67.28125 
z
" id="DejaVuSans-67"/>
       <path d="M 39.40625 66.21875 
Q 28.65625 66.21875 22.328125 58.203125 
Q 16.015625 50.203125 16.015625 36.375 
Q 16.015625 22.609375 22.328125 14.59375 
Q 28.65625 6.59375 39.40625 6.59375 
Q 50.140625 6.59375 56.421875 14.59375 
Q 62.703125 22.609375 62.703125 36.375 
Q 62.703125 50.203125 56.421875 58.203125 
Q 50.140625 66.21875 39.40625 66.21875 
z
M 39.40625 74.21875 
Q 54.734375 74.21875 63.90625 63.9375 
Q 73.09375 53.65625 73.09375 36.375 
Q 73.09375 19.140625 63.90625 8.859375 
Q 54.734375 -1.421875 39.40625 -1.421875 
Q 24.03125 -1.421875 14.8125 8.828125 
Q 5.609375 19.09375 5.609375 36.375 
Q 5.609375 53.65625 14.8125 63.9375 
Q 24.03125 74.21875 39.40625 74.21875 
z
" id="DejaVuSans-79"/>
       <path d="M 53.515625 70.515625 
L 53.515625 60.890625 
Q 47.90625 63.578125 42.921875 64.890625 
Q 37.9375 66.21875 33.296875 66.21875 
Q 25.25 66.21875 20.875 63.09375 
Q 16.5 59.96875 16.5 54.203125 
Q 16.5 49.359375 19.40625 46.890625 
Q 22.3125 44.4375 30.421875 42.921875 
L 36.375 41.703125 
Q 47.40625 39.59375 52.65625 34.296875 
Q 57.90625 29 57.90625 20.125 
Q 57.90625 9.515625 50.796875 4.046875 
Q 43.703125 -1.421875 29.984375 -1.421875 
Q 24.8125 -1.421875 18.96875 -0.25 
Q 13.140625 0.921875 6.890625 3.21875 
L 6.890625 13.375 
Q 12.890625 10.015625 18.65625 8.296875 
Q 24.421875 6.59375 29.984375 6.59375 
Q 38.421875 6.59375 43.015625 9.90625 
Q 47.609375 13.234375 47.609375 19.390625 
Q 47.609375 24.75 44.3125 27.78125 
Q 41.015625 30.8125 33.5 32.328125 
L 27.484375 33.5 
Q 16.453125 35.6875 11.515625 40.375 
Q 6.59375 45.0625 6.59375 53.421875 
Q 6.59375 63.09375 13.40625 68.65625 
Q 20.21875 74.21875 32.171875 74.21875 
Q 37.3125 74.21875 42.625 73.28125 
Q 47.953125 72.359375 53.515625 70.515625 
z
" id="DejaVuSans-83"/>
       <path d="M -0.296875 72.90625 
L 61.375 72.90625 
L 61.375 64.59375 
L 35.5 64.59375 
L 35.5 0 
L 25.59375 0 
L 25.59375 64.59375 
L -0.296875 64.59375 
z
" id="DejaVuSans-84"/>
       <path d="M 34.1875 63.1875 
L 20.796875 26.90625 
L 47.609375 26.90625 
z
M 28.609375 72.90625 
L 39.796875 72.90625 
L 67.578125 0 
L 57.328125 0 
L 50.6875 18.703125 
L 17.828125 18.703125 
L 11.1875 0 
L 0.78125 0 
z
" id="DejaVuSans-65"/>
       <path id="DejaVuSans-32"/>
       <path d="M 44.390625 34.1875 
Q 47.5625 33.109375 50.5625 29.59375 
Q 53.5625 26.078125 56.59375 19.921875 
L 66.609375 0 
L 56 0 
L 46.6875 18.703125 
Q 43.0625 26.03125 39.671875 28.421875 
Q 36.28125 30.8125 30.421875 30.8125 
L 19.671875 30.8125 
L 19.671875 0 
L 9.8125 0 
L 9.8125 72.90625 
L 32.078125 72.90625 
Q 44.578125 72.90625 50.734375 67.671875 
Q 56.890625 62.453125 56.890625 51.90625 
Q 56.890625 45.015625 53.6875 40.46875 
Q 50.484375 35.9375 44.390625 34.1875 
z
M 19.671875 64.796875 
L 19.671875 38.921875 
L 32.078125 38.921875 
Q 39.203125 38.921875 42.84375 42.21875 
Q 46.484375 45.515625 46.484375 51.90625 
Q 46.484375 58.296875 42.84375 61.546875 
Q 39.203125 64.796875 32.078125 64.796875 
z
" id="DejaVuSans-82"/>
       <path d="M 9.8125 72.90625 
L 19.671875 72.90625 
L 19.671875 0 
L 9.8125 0 
z
" id="DejaVuSans-73"/>
      </defs>
      <g transform="translate(67.723437 624.739219)scale(0.1 -0.1)">
       <use xlink:href="#DejaVuSans-67"/>
       <use x="69.824219" xlink:href="#DejaVuSans-79"/>
       <use x="148.535156" xlink:href="#DejaVuSans-83"/>
       <use x="212.011719" xlink:href="#DejaVuSans-84"/>
       <use x="265.345703" xlink:href="#DejaVuSans-65"/>
       <use x="333.753906" xlink:href="#DejaVuSans-32"/>
       <use x="365.541016" xlink:href="#DejaVuSans-82"/>
       <use x="435.023438" xlink:href="#DejaVuSans-73"/>
       <use x="464.515625" xlink:href="#DejaVuSans-67"/>
       <use x="534.339844" xlink:href="#DejaVuSans-65"/>
      </g>
     </g>
    </g>
    <g id="ytick_2">
     <g id="line2d_7">
      <g>
       <use style="stroke:#000000;stroke-width:0.8;" x="135" xlink:href="#mcff6380000" y="602.82"/>
      </g>
     </g>
     <g id="text_7">
      <!-- INDONESIA -->
      <defs>
       <path d="M 9.8125 72.90625 
L 23.09375 72.90625 
L 55.421875 11.921875 
L 55.421875 72.90625 
L 64.984375 72.90625 
L 64.984375 0 
L 51.703125 0 
L 19.390625 60.984375 
L 19.390625 0 
L 9.8125 0 
z
" id="DejaVuSans-78"/>
       <path d="M 19.671875 64.796875 
L 19.671875 8.109375 
L 31.59375 8.109375 
Q 46.6875 8.109375 53.6875 14.9375 
Q 60.6875 21.78125 60.6875 36.53125 
Q 60.6875 51.171875 53.6875 57.984375 
Q 46.6875 64.796875 31.59375 64.796875 
z
M 9.8125 72.90625 
L 30.078125 72.90625 
Q 51.265625 72.90625 61.171875 64.09375 
Q 71.09375 55.28125 71.09375 36.53125 
Q 71.09375 17.671875 61.125 8.828125 
Q 51.171875 0 30.078125 0 
L 9.8125 0 
z
" id="DejaVuSans-68"/>
       <path d="M 9.8125 72.90625 
L 55.90625 72.90625 
L 55.90625 64.59375 
L 19.671875 64.59375 
L 19.671875 43.015625 
L 54.390625 43.015625 
L 54.390625 34.71875 
L 19.671875 34.71875 
L 19.671875 8.296875 
L 56.78125 8.296875 
L 56.78125 0 
L 9.8125 0 
z
" id="DejaVuSans-69"/>
      </defs>
      <g transform="translate(72.057812 606.619219)scale(0.1 -0.1)">
       <use xlink:href="#DejaVuSans-73"/>
       <use x="29.492188" xlink:href="#DejaVuSans-78"/>
       <use x="104.296875" xlink:href="#DejaVuSans-68"/>
       <use x="181.298828" xlink:href="#DejaVuSans-79"/>
       <use x="260.009766" xlink:href="#DejaVuSans-78"/>
       <use x="334.814453" xlink:href="#DejaVuSans-69"/>
       <use x="397.998047" xlink:href="#DejaVuSans-83"/>
       <use x="461.474609" xlink:href="#DejaVuSans-73"/>
       <use x="490.966797" xlink:href="#DejaVuSans-65"/>
      </g>
     </g>
    </g>
    <g id="ytick_3">
     <g id="line2d_8">
      <g>
       <use style="stroke:#000000;stroke-width:0.8;" x="135" xlink:href="#mcff6380000" y="584.7"/>
      </g>
     </g>
     <g id="text_8">
      <!-- ENGLAND -->
      <defs>
       <path d="M 59.515625 10.40625 
L 59.515625 29.984375 
L 43.40625 29.984375 
L 43.40625 38.09375 
L 69.28125 38.09375 
L 69.28125 6.78125 
Q 63.578125 2.734375 56.6875 0.65625 
Q 49.8125 -1.421875 42 -1.421875 
Q 24.90625 -1.421875 15.25 8.5625 
Q 5.609375 18.5625 5.609375 36.375 
Q 5.609375 54.25 15.25 64.234375 
Q 24.90625 74.21875 42 74.21875 
Q 49.125 74.21875 55.546875 72.453125 
Q 61.96875 70.703125 67.390625 67.28125 
L 67.390625 56.78125 
Q 61.921875 61.421875 55.765625 63.765625 
Q 49.609375 66.109375 42.828125 66.109375 
Q 29.4375 66.109375 22.71875 58.640625 
Q 16.015625 51.171875 16.015625 36.375 
Q 16.015625 21.625 22.71875 14.15625 
Q 29.4375 6.6875 42.828125 6.6875 
Q 48.046875 6.6875 52.140625 7.59375 
Q 56.25 8.5 59.515625 10.40625 
z
" id="DejaVuSans-71"/>
       <path d="M 9.8125 72.90625 
L 19.671875 72.90625 
L 19.671875 8.296875 
L 55.171875 8.296875 
L 55.171875 0 
L 9.8125 0 
z
" id="DejaVuSans-76"/>
      </defs>
      <g transform="translate(78.632812 588.499219)scale(0.1 -0.1)">
       <use xlink:href="#DejaVuSans-69"/>
       <use x="63.183594" xlink:href="#DejaVuSans-78"/>
       <use x="137.988281" xlink:href="#DejaVuSans-71"/>
       <use x="215.478516" xlink:href="#DejaVuSans-76"/>
       <use x="273.441406" xlink:href="#DejaVuSans-65"/>
       <use x="341.849609" xlink:href="#DejaVuSans-78"/>
       <use x="416.654297" xlink:href="#DejaVuSans-68"/>
      </g>
     </g>
    </g>
    <g id="ytick_4">
     <g id="line2d_9">
      <g>
       <use style="stroke:#000000;stroke-width:0.8;" x="135" xlink:href="#mcff6380000" y="566.58"/>
      </g>
     </g>
     <g id="text_9">
      <!-- HONG KONG -->
      <defs>
       <path d="M 9.8125 72.90625 
L 19.671875 72.90625 
L 19.671875 43.015625 
L 55.515625 43.015625 
L 55.515625 72.90625 
L 65.375 72.90625 
L 65.375 0 
L 55.515625 0 
L 55.515625 34.71875 
L 19.671875 34.71875 
L 19.671875 0 
L 9.8125 0 
z
" id="DejaVuSans-72"/>
       <path d="M 9.8125 72.90625 
L 19.671875 72.90625 
L 19.671875 42.09375 
L 52.390625 72.90625 
L 65.09375 72.90625 
L 28.90625 38.921875 
L 67.671875 0 
L 54.6875 0 
L 19.671875 35.109375 
L 19.671875 0 
L 9.8125 0 
z
" id="DejaVuSans-75"/>
      </defs>
      <g transform="translate(65.090625 570.379219)scale(0.1 -0.1)">
       <use xlink:href="#DejaVuSans-72"/>
       <use x="75.195312" xlink:href="#DejaVuSans-79"/>
       <use x="153.90625" xlink:href="#DejaVuSans-78"/>
       <use x="228.710938" xlink:href="#DejaVuSans-71"/>
       <use x="306.201172" xlink:href="#DejaVuSans-32"/>
       <use x="337.988281" xlink:href="#DejaVuSans-75"/>
       <use x="398.064453" xlink:href="#DejaVuSans-79"/>
       <use x="476.775391" xlink:href="#DejaVuSans-78"/>
       <use x="551.580078" xlink:href="#DejaVuSans-71"/>
      </g>
     </g>
    </g>
    <g id="ytick_5">
     <g id="line2d_10">
      <g>
       <use style="stroke:#000000;stroke-width:0.8;" x="135" xlink:href="#mcff6380000" y="548.46"/>
      </g>
     </g>
     <g id="text_10">
      <!-- FRENCH POLYNESIA -->
      <defs>
       <path d="M 9.8125 72.90625 
L 51.703125 72.90625 
L 51.703125 64.59375 
L 19.671875 64.59375 
L 19.671875 43.109375 
L 48.578125 43.109375 
L 48.578125 34.8125 
L 19.671875 34.8125 
L 19.671875 0 
L 9.8125 0 
z
" id="DejaVuSans-70"/>
       <path d="M 19.671875 64.796875 
L 19.671875 37.40625 
L 32.078125 37.40625 
Q 38.96875 37.40625 42.71875 40.96875 
Q 46.484375 44.53125 46.484375 51.125 
Q 46.484375 57.671875 42.71875 61.234375 
Q 38.96875 64.796875 32.078125 64.796875 
z
M 9.8125 72.90625 
L 32.078125 72.90625 
Q 44.34375 72.90625 50.609375 67.359375 
Q 56.890625 61.8125 56.890625 51.125 
Q 56.890625 40.328125 50.609375 34.8125 
Q 44.34375 29.296875 32.078125 29.296875 
L 19.671875 29.296875 
L 19.671875 0 
L 9.8125 0 
z
" id="DejaVuSans-80"/>
       <path d="M -0.203125 72.90625 
L 10.40625 72.90625 
L 30.609375 42.921875 
L 50.6875 72.90625 
L 61.28125 72.90625 
L 35.5 34.71875 
L 35.5 0 
L 25.59375 0 
L 25.59375 34.71875 
z
" id="DejaVuSans-89"/>
      </defs>
      <g transform="translate(29.623437 552.259219)scale(0.1 -0.1)">
       <use xlink:href="#DejaVuSans-70"/>
       <use x="57.519531" xlink:href="#DejaVuSans-82"/>
       <use x="127.001953" xlink:href="#DejaVuSans-69"/>
       <use x="190.185547" xlink:href="#DejaVuSans-78"/>
       <use x="264.990234" xlink:href="#DejaVuSans-67"/>
       <use x="334.814453" xlink:href="#DejaVuSans-72"/>
       <use x="410.009766" xlink:href="#DejaVuSans-32"/>
       <use x="441.796875" xlink:href="#DejaVuSans-80"/>
       <use x="502.099609" xlink:href="#DejaVuSans-79"/>
       <use x="580.810547" xlink:href="#DejaVuSans-76"/>
       <use x="623.273438" xlink:href="#DejaVuSans-89"/>
       <use x="684.357422" xlink:href="#DejaVuSans-78"/>
       <use x="759.162109" xlink:href="#DejaVuSans-69"/>
       <use x="822.345703" xlink:href="#DejaVuSans-83"/>
       <use x="885.822266" xlink:href="#DejaVuSans-73"/>
       <use x="915.314453" xlink:href="#DejaVuSans-65"/>
      </g>
     </g>
    </g>
    <g id="ytick_6">
     <g id="line2d_11">
      <g>
       <use style="stroke:#000000;stroke-width:0.8;" x="135" xlink:href="#mcff6380000" y="530.34"/>
      </g>
     </g>
     <g id="text_11">
      <!-- GREECE -->
      <g transform="translate(87.364062 534.139219)scale(0.1 -0.1)">
       <use xlink:href="#DejaVuSans-71"/>
       <use x="77.490234" xlink:href="#DejaVuSans-82"/>
       <use x="146.972656" xlink:href="#DejaVuSans-69"/>
       <use x="210.15625" xlink:href="#DejaVuSans-69"/>
       <use x="273.339844" xlink:href="#DejaVuSans-67"/>
       <use x="343.164062" xlink:href="#DejaVuSans-69"/>
      </g>
     </g>
    </g>
    <g id="ytick_7">
     <g id="line2d_12">
      <g>
       <use style="stroke:#000000;stroke-width:0.8;" x="135" xlink:href="#mcff6380000" y="512.22"/>
      </g>
     </g>
     <g id="text_12">
      <!-- JAMAICA -->
      <defs>
       <path d="M 9.8125 72.90625 
L 19.671875 72.90625 
L 19.671875 5.078125 
Q 19.671875 -8.109375 14.671875 -14.0625 
Q 9.671875 -20.015625 -1.421875 -20.015625 
L -5.171875 -20.015625 
L -5.171875 -11.71875 
L -2.09375 -11.71875 
Q 4.4375 -11.71875 7.125 -8.046875 
Q 9.8125 -4.390625 9.8125 5.078125 
z
" id="DejaVuSans-74"/>
       <path d="M 9.8125 72.90625 
L 24.515625 72.90625 
L 43.109375 23.296875 
L 61.8125 72.90625 
L 76.515625 72.90625 
L 76.515625 0 
L 66.890625 0 
L 66.890625 64.015625 
L 48.09375 14.015625 
L 38.1875 14.015625 
L 19.390625 64.015625 
L 19.390625 0 
L 9.8125 0 
z
" id="DejaVuSans-77"/>
      </defs>
      <g transform="translate(86.142188 516.019219)scale(0.1 -0.1)">
       <use xlink:href="#DejaVuSans-74"/>
       <use x="27.742188" xlink:href="#DejaVuSans-65"/>
       <use x="96.150391" xlink:href="#DejaVuSans-77"/>
       <use x="182.429688" xlink:href="#DejaVuSans-65"/>
       <use x="250.837891" xlink:href="#DejaVuSans-73"/>
       <use x="280.330078" xlink:href="#DejaVuSans-67"/>
       <use x="350.154297" xlink:href="#DejaVuSans-65"/>
      </g>
     </g>
    </g>
    <g id="ytick_8">
     <g id="line2d_13">
      <g>
       <use style="stroke:#000000;stroke-width:0.8;" x="135" xlink:href="#mcff6380000" y="494.1"/>
      </g>
     </g>
     <g id="text_13">
      <!-- IRAN -->
      <g transform="translate(104.179688 497.899219)scale(0.1 -0.1)">
       <use xlink:href="#DejaVuSans-73"/>
       <use x="29.492188" xlink:href="#DejaVuSans-82"/>
       <use x="94.974609" xlink:href="#DejaVuSans-65"/>
       <use x="163.382812" xlink:href="#DejaVuSans-78"/>
      </g>
     </g>
    </g>
    <g id="ytick_9">
     <g id="line2d_14">
      <g>
       <use style="stroke:#000000;stroke-width:0.8;" x="135" xlink:href="#mcff6380000" y="475.98"/>
      </g>
     </g>
     <g id="text_14">
      <!-- SOLOMON ISLANDS -->
      <g transform="translate(30.073437 479.779219)scale(0.1 -0.1)">
       <use xlink:href="#DejaVuSans-83"/>
       <use x="63.476562" xlink:href="#DejaVuSans-79"/>
       <use x="142.1875" xlink:href="#DejaVuSans-76"/>
       <use x="194.275391" xlink:href="#DejaVuSans-79"/>
       <use x="272.986328" xlink:href="#DejaVuSans-77"/>
       <use x="359.265625" xlink:href="#DejaVuSans-79"/>
       <use x="437.976562" xlink:href="#DejaVuSans-78"/>
       <use x="512.78125" xlink:href="#DejaVuSans-32"/>
       <use x="544.568359" xlink:href="#DejaVuSans-73"/>
       <use x="574.060547" xlink:href="#DejaVuSans-83"/>
       <use x="637.537109" xlink:href="#DejaVuSans-76"/>
       <use x="695.5" xlink:href="#DejaVuSans-65"/>
       <use x="763.908203" xlink:href="#DejaVuSans-78"/>
       <use x="838.712891" xlink:href="#DejaVuSans-68"/>
       <use x="915.714844" xlink:href="#DejaVuSans-83"/>
      </g>
     </g>
    </g>
    <g id="ytick_10">
     <g id="line2d_15">
      <g>
       <use style="stroke:#000000;stroke-width:0.8;" x="135" xlink:href="#mcff6380000" y="457.86"/>
      </g>
     </g>
     <g id="text_15">
      <!-- PANAMA -->
      <g transform="translate(85.976562 461.659219)scale(0.1 -0.1)">
       <use xlink:href="#DejaVuSans-80"/>
       <use x="53.927734" xlink:href="#DejaVuSans-65"/>
       <use x="122.335938" xlink:href="#DejaVuSans-78"/>
       <use x="197.140625" xlink:href="#DejaVuSans-65"/>
       <use x="265.548828" xlink:href="#DejaVuSans-77"/>
       <use x="351.828125" xlink:href="#DejaVuSans-65"/>
      </g>
     </g>
    </g>
    <g id="ytick_11">
     <g id="line2d_16">
      <g>
       <use style="stroke:#000000;stroke-width:0.8;" x="135" xlink:href="#mcff6380000" y="439.74"/>
      </g>
     </g>
     <g id="text_16">
      <!-- JAPAN -->
      <g transform="translate(98.670312 443.539219)scale(0.1 -0.1)">
       <use xlink:href="#DejaVuSans-74"/>
       <use x="27.742188" xlink:href="#DejaVuSans-65"/>
       <use x="96.150391" xlink:href="#DejaVuSans-80"/>
       <use x="150.078125" xlink:href="#DejaVuSans-65"/>
       <use x="218.486328" xlink:href="#DejaVuSans-78"/>
      </g>
     </g>
    </g>
    <g id="ytick_12">
     <g id="line2d_17">
      <g>
       <use style="stroke:#000000;stroke-width:0.8;" x="135" xlink:href="#mcff6380000" y="421.62"/>
      </g>
     </g>
     <g id="text_17">
      <!-- CROATIA -->
      <g transform="translate(84.407813 425.419219)scale(0.1 -0.1)">
       <use xlink:href="#DejaVuSans-67"/>
       <use x="69.824219" xlink:href="#DejaVuSans-82"/>
       <use x="139.306641" xlink:href="#DejaVuSans-79"/>
       <use x="216.267578" xlink:href="#DejaVuSans-65"/>
       <use x="276.925781" xlink:href="#DejaVuSans-84"/>
       <use x="338.009766" xlink:href="#DejaVuSans-73"/>
       <use x="367.501953" xlink:href="#DejaVuSans-65"/>
      </g>
     </g>
    </g>
    <g id="ytick_13">
     <g id="line2d_18">
      <g>
       <use style="stroke:#000000;stroke-width:0.8;" x="135" xlink:href="#mcff6380000" y="403.5"/>
      </g>
     </g>
     <g id="text_18">
      <!-- EGYPT -->
      <g transform="translate(96.1875 407.299219)scale(0.1 -0.1)">
       <use xlink:href="#DejaVuSans-69"/>
       <use x="63.183594" xlink:href="#DejaVuSans-71"/>
       <use x="135.673828" xlink:href="#DejaVuSans-89"/>
       <use x="196.757812" xlink:href="#DejaVuSans-80"/>
       <use x="257.060547" xlink:href="#DejaVuSans-84"/>
      </g>
     </g>
    </g>
    <g id="ytick_14">
     <g id="line2d_19">
      <g>
       <use style="stroke:#000000;stroke-width:0.8;" x="135" xlink:href="#mcff6380000" y="385.38"/>
      </g>
     </g>
     <g id="text_19">
      <!-- SPAIN -->
      <g transform="translate(98.9875 389.179219)scale(0.1 -0.1)">
       <use xlink:href="#DejaVuSans-83"/>
       <use x="63.476562" xlink:href="#DejaVuSans-80"/>
       <use x="117.404297" xlink:href="#DejaVuSans-65"/>
       <use x="185.8125" xlink:href="#DejaVuSans-73"/>
       <use x="215.304688" xlink:href="#DejaVuSans-78"/>
      </g>
     </g>
    </g>
    <g id="ytick_15">
     <g id="line2d_20">
      <g>
       <use style="stroke:#000000;stroke-width:0.8;" x="135" xlink:href="#mcff6380000" y="367.26"/>
      </g>
     </g>
     <g id="text_20">
      <!-- MOZAMBIQUE -->
      <defs>
       <path d="M 5.609375 72.90625 
L 62.890625 72.90625 
L 62.890625 65.375 
L 16.796875 8.296875 
L 64.015625 8.296875 
L 64.015625 0 
L 4.5 0 
L 4.5 7.515625 
L 50.59375 64.59375 
L 5.609375 64.59375 
z
" id="DejaVuSans-90"/>
       <path d="M 19.671875 34.8125 
L 19.671875 8.109375 
L 35.5 8.109375 
Q 43.453125 8.109375 47.28125 11.40625 
Q 51.125 14.703125 51.125 21.484375 
Q 51.125 28.328125 47.28125 31.5625 
Q 43.453125 34.8125 35.5 34.8125 
z
M 19.671875 64.796875 
L 19.671875 42.828125 
L 34.28125 42.828125 
Q 41.5 42.828125 45.03125 45.53125 
Q 48.578125 48.25 48.578125 53.8125 
Q 48.578125 59.328125 45.03125 62.0625 
Q 41.5 64.796875 34.28125 64.796875 
z
M 9.8125 72.90625 
L 35.015625 72.90625 
Q 46.296875 72.90625 52.390625 68.21875 
Q 58.5 63.53125 58.5 54.890625 
Q 58.5 48.1875 55.375 44.234375 
Q 52.25 40.28125 46.1875 39.3125 
Q 53.46875 37.75 57.5 32.78125 
Q 61.53125 27.828125 61.53125 20.40625 
Q 61.53125 10.640625 54.890625 5.3125 
Q 48.25 0 35.984375 0 
L 9.8125 0 
z
" id="DejaVuSans-66"/>
       <path d="M 39.40625 66.21875 
Q 28.65625 66.21875 22.328125 58.203125 
Q 16.015625 50.203125 16.015625 36.375 
Q 16.015625 22.609375 22.328125 14.59375 
Q 28.65625 6.59375 39.40625 6.59375 
Q 50.140625 6.59375 56.421875 14.59375 
Q 62.703125 22.609375 62.703125 36.375 
Q 62.703125 50.203125 56.421875 58.203125 
Q 50.140625 66.21875 39.40625 66.21875 
z
M 53.21875 1.3125 
L 66.21875 -12.890625 
L 54.296875 -12.890625 
L 43.5 -1.21875 
Q 41.890625 -1.3125 41.03125 -1.359375 
Q 40.1875 -1.421875 39.40625 -1.421875 
Q 24.03125 -1.421875 14.8125 8.859375 
Q 5.609375 19.140625 5.609375 36.375 
Q 5.609375 53.65625 14.8125 63.9375 
Q 24.03125 74.21875 39.40625 74.21875 
Q 54.734375 74.21875 63.90625 63.9375 
Q 73.09375 53.65625 73.09375 36.375 
Q 73.09375 23.6875 67.984375 14.640625 
Q 62.890625 5.609375 53.21875 1.3125 
z
" id="DejaVuSans-81"/>
       <path d="M 8.6875 72.90625 
L 18.609375 72.90625 
L 18.609375 28.609375 
Q 18.609375 16.890625 22.84375 11.734375 
Q 27.09375 6.59375 36.625 6.59375 
Q 46.09375 6.59375 50.34375 11.734375 
Q 54.59375 16.890625 54.59375 28.609375 
L 54.59375 72.90625 
L 64.5 72.90625 
L 64.5 27.390625 
Q 64.5 13.140625 57.4375 5.859375 
Q 50.390625 -1.421875 36.625 -1.421875 
Q 22.796875 -1.421875 15.734375 5.859375 
Q 8.6875 13.140625 8.6875 27.390625 
z
" id="DejaVuSans-85"/>
      </defs>
      <g transform="translate(57.860937 371.059219)scale(0.1 -0.1)">
       <use xlink:href="#DejaVuSans-77"/>
       <use x="86.279297" xlink:href="#DejaVuSans-79"/>
       <use x="164.990234" xlink:href="#DejaVuSans-90"/>
       <use x="233.496094" xlink:href="#DejaVuSans-65"/>
       <use x="301.904297" xlink:href="#DejaVuSans-77"/>
       <use x="388.183594" xlink:href="#DejaVuSans-66"/>
       <use x="456.787109" xlink:href="#DejaVuSans-73"/>
       <use x="486.279297" xlink:href="#DejaVuSans-81"/>
       <use x="564.990234" xlink:href="#DejaVuSans-85"/>
       <use x="638.183594" xlink:href="#DejaVuSans-69"/>
      </g>
     </g>
    </g>
    <g id="ytick_16">
     <g id="line2d_21">
      <g>
       <use style="stroke:#000000;stroke-width:0.8;" x="135" xlink:href="#mcff6380000" y="349.14"/>
      </g>
     </g>
     <g id="text_21">
      <!-- CUBA -->
      <g transform="translate(99.996875 352.939219)scale(0.1 -0.1)">
       <use xlink:href="#DejaVuSans-67"/>
       <use x="69.824219" xlink:href="#DejaVuSans-85"/>
       <use x="143.017578" xlink:href="#DejaVuSans-66"/>
       <use x="211.621094" xlink:href="#DejaVuSans-65"/>
      </g>
     </g>
    </g>
    <g id="ytick_17">
     <g id="line2d_22">
      <g>
       <use style="stroke:#000000;stroke-width:0.8;" x="135" xlink:href="#mcff6380000" y="331.02"/>
      </g>
     </g>
     <g id="text_22">
      <!-- INDIA -->
      <g transform="translate(100.078125 334.819219)scale(0.1 -0.1)">
       <use xlink:href="#DejaVuSans-73"/>
       <use x="29.492188" xlink:href="#DejaVuSans-78"/>
       <use x="104.296875" xlink:href="#DejaVuSans-68"/>
       <use x="181.298828" xlink:href="#DejaVuSans-73"/>
       <use x="210.791016" xlink:href="#DejaVuSans-65"/>
      </g>
     </g>
    </g>
    <g id="ytick_18">
     <g id="line2d_23">
      <g>
       <use style="stroke:#000000;stroke-width:0.8;" x="135" xlink:href="#mcff6380000" y="312.9"/>
      </g>
     </g>
     <g id="text_23">
      <!-- NEW CALEDONIA -->
      <defs>
       <path d="M 3.328125 72.90625 
L 13.28125 72.90625 
L 28.609375 11.28125 
L 43.890625 72.90625 
L 54.984375 72.90625 
L 70.3125 11.28125 
L 85.59375 72.90625 
L 95.609375 72.90625 
L 77.296875 0 
L 64.890625 0 
L 49.515625 63.28125 
L 33.984375 0 
L 21.578125 0 
z
" id="DejaVuSans-87"/>
      </defs>
      <g transform="translate(42.576562 316.699219)scale(0.1 -0.1)">
       <use xlink:href="#DejaVuSans-78"/>
       <use x="74.804688" xlink:href="#DejaVuSans-69"/>
       <use x="137.988281" xlink:href="#DejaVuSans-87"/>
       <use x="236.865234" xlink:href="#DejaVuSans-32"/>
       <use x="268.652344" xlink:href="#DejaVuSans-67"/>
       <use x="338.476562" xlink:href="#DejaVuSans-65"/>
       <use x="406.884766" xlink:href="#DejaVuSans-76"/>
       <use x="462.597656" xlink:href="#DejaVuSans-69"/>
       <use x="525.78125" xlink:href="#DejaVuSans-68"/>
       <use x="602.783203" xlink:href="#DejaVuSans-79"/>
       <use x="681.494141" xlink:href="#DejaVuSans-78"/>
       <use x="756.298828" xlink:href="#DejaVuSans-73"/>
       <use x="785.791016" xlink:href="#DejaVuSans-65"/>
      </g>
     </g>
    </g>
    <g id="ytick_19">
     <g id="line2d_24">
      <g>
       <use style="stroke:#000000;stroke-width:0.8;" x="135" xlink:href="#mcff6380000" y="294.78"/>
      </g>
     </g>
     <g id="text_24">
      <!-- REUNION -->
      <g transform="translate(81.629687 298.579219)scale(0.1 -0.1)">
       <use xlink:href="#DejaVuSans-82"/>
       <use x="69.482422" xlink:href="#DejaVuSans-69"/>
       <use x="132.666016" xlink:href="#DejaVuSans-85"/>
       <use x="205.859375" xlink:href="#DejaVuSans-78"/>
       <use x="280.664062" xlink:href="#DejaVuSans-73"/>
       <use x="310.15625" xlink:href="#DejaVuSans-79"/>
       <use x="388.867188" xlink:href="#DejaVuSans-78"/>
      </g>
     </g>
    </g>
    <g id="ytick_20">
     <g id="line2d_25">
      <g>
       <use style="stroke:#000000;stroke-width:0.8;" x="135" xlink:href="#mcff6380000" y="276.66"/>
      </g>
     </g>
     <g id="text_25">
      <!-- PHILIPPINES -->
      <g transform="translate(67.820312 280.459219)scale(0.1 -0.1)">
       <use xlink:href="#DejaVuSans-80"/>
       <use x="60.302734" xlink:href="#DejaVuSans-72"/>
       <use x="135.498047" xlink:href="#DejaVuSans-73"/>
       <use x="164.990234" xlink:href="#DejaVuSans-76"/>
       <use x="220.703125" xlink:href="#DejaVuSans-73"/>
       <use x="250.195312" xlink:href="#DejaVuSans-80"/>
       <use x="310.498047" xlink:href="#DejaVuSans-80"/>
       <use x="370.800781" xlink:href="#DejaVuSans-73"/>
       <use x="400.292969" xlink:href="#DejaVuSans-78"/>
       <use x="475.097656" xlink:href="#DejaVuSans-69"/>
       <use x="538.28125" xlink:href="#DejaVuSans-83"/>
      </g>
     </g>
    </g>
    <g id="ytick_21">
     <g id="line2d_26">
      <g>
       <use style="stroke:#000000;stroke-width:0.8;" x="135" xlink:href="#mcff6380000" y="258.54"/>
      </g>
     </g>
     <g id="text_26">
      <!-- FIJI -->
      <g transform="translate(113.398438 262.339219)scale(0.1 -0.1)">
       <use xlink:href="#DejaVuSans-70"/>
       <use x="57.519531" xlink:href="#DejaVuSans-73"/>
       <use x="87.011719" xlink:href="#DejaVuSans-74"/>
       <use x="116.503906" xlink:href="#DejaVuSans-73"/>
      </g>
     </g>
    </g>
    <g id="ytick_22">
     <g id="line2d_27">
      <g>
       <use style="stroke:#000000;stroke-width:0.8;" x="135" xlink:href="#mcff6380000" y="240.42"/>
      </g>
     </g>
     <g id="text_27">
      <!-- ITALY -->
      <g transform="translate(102.521875 244.219219)scale(0.1 -0.1)">
       <use xlink:href="#DejaVuSans-73"/>
       <use x="29.492188" xlink:href="#DejaVuSans-84"/>
       <use x="82.826172" xlink:href="#DejaVuSans-65"/>
       <use x="151.234375" xlink:href="#DejaVuSans-76"/>
       <use x="193.697266" xlink:href="#DejaVuSans-89"/>
      </g>
     </g>
    </g>
    <g id="ytick_23">
     <g id="line2d_28">
      <g>
       <use style="stroke:#000000;stroke-width:0.8;" x="135" xlink:href="#mcff6380000" y="222.3"/>
      </g>
     </g>
     <g id="text_28">
      <!-- MEXICO -->
      <defs>
       <path d="M 6.296875 72.90625 
L 16.890625 72.90625 
L 35.015625 45.796875 
L 53.21875 72.90625 
L 63.8125 72.90625 
L 40.375 37.890625 
L 65.375 0 
L 54.78125 0 
L 34.28125 31 
L 13.625 0 
L 2.984375 0 
L 29 38.921875 
z
" id="DejaVuSans-88"/>
      </defs>
      <g transform="translate(88.398438 226.099219)scale(0.1 -0.1)">
       <use xlink:href="#DejaVuSans-77"/>
       <use x="86.279297" xlink:href="#DejaVuSans-69"/>
       <use x="149.462891" xlink:href="#DejaVuSans-88"/>
       <use x="217.96875" xlink:href="#DejaVuSans-73"/>
       <use x="247.460938" xlink:href="#DejaVuSans-67"/>
       <use x="317.285156" xlink:href="#DejaVuSans-79"/>
      </g>
     </g>
    </g>
    <g id="ytick_24">
     <g id="line2d_29">
      <g>
       <use style="stroke:#000000;stroke-width:0.8;" x="135" xlink:href="#mcff6380000" y="204.18"/>
      </g>
     </g>
     <g id="text_29">
      <!-- BAHAMAS -->
      <g transform="translate(78.120312 207.979219)scale(0.1 -0.1)">
       <use xlink:href="#DejaVuSans-66"/>
       <use x="68.603516" xlink:href="#DejaVuSans-65"/>
       <use x="137.011719" xlink:href="#DejaVuSans-72"/>
       <use x="212.207031" xlink:href="#DejaVuSans-65"/>
       <use x="280.615234" xlink:href="#DejaVuSans-77"/>
       <use x="366.894531" xlink:href="#DejaVuSans-65"/>
       <use x="435.302734" xlink:href="#DejaVuSans-83"/>
      </g>
     </g>
    </g>
    <g id="ytick_25">
     <g id="line2d_30">
      <g>
       <use style="stroke:#000000;stroke-width:0.8;" x="135" xlink:href="#mcff6380000" y="186.06"/>
      </g>
     </g>
     <g id="text_30">
      <!-- BRAZIL -->
      <g transform="translate(92.378125 189.859219)scale(0.1 -0.1)">
       <use xlink:href="#DejaVuSans-66"/>
       <use x="68.603516" xlink:href="#DejaVuSans-82"/>
       <use x="134.085938" xlink:href="#DejaVuSans-65"/>
       <use x="202.494141" xlink:href="#DejaVuSans-90"/>
       <use x="271" xlink:href="#DejaVuSans-73"/>
       <use x="300.492188" xlink:href="#DejaVuSans-76"/>
      </g>
     </g>
    </g>
    <g id="ytick_26">
     <g id="line2d_31">
      <g>
       <use style="stroke:#000000;stroke-width:0.8;" x="135" xlink:href="#mcff6380000" y="167.94"/>
      </g>
     </g>
     <g id="text_31">
      <!-- NEW ZEALAND -->
      <g transform="translate(53.30625 171.739219)scale(0.1 -0.1)">
       <use xlink:href="#DejaVuSans-78"/>
       <use x="74.804688" xlink:href="#DejaVuSans-69"/>
       <use x="137.988281" xlink:href="#DejaVuSans-87"/>
       <use x="236.865234" xlink:href="#DejaVuSans-32"/>
       <use x="268.652344" xlink:href="#DejaVuSans-90"/>
       <use x="337.158203" xlink:href="#DejaVuSans-69"/>
       <use x="400.341797" xlink:href="#DejaVuSans-65"/>
       <use x="468.75" xlink:href="#DejaVuSans-76"/>
       <use x="526.712891" xlink:href="#DejaVuSans-65"/>
       <use x="595.121094" xlink:href="#DejaVuSans-78"/>
       <use x="669.925781" xlink:href="#DejaVuSans-68"/>
      </g>
     </g>
    </g>
    <g id="ytick_27">
     <g id="line2d_32">
      <g>
       <use style="stroke:#000000;stroke-width:0.8;" x="135" xlink:href="#mcff6380000" y="149.82"/>
      </g>
     </g>
     <g id="text_32">
      <!-- PAPUA NEW GUINEA -->
      <g transform="translate(26.876562 153.619219)scale(0.1 -0.1)">
       <use xlink:href="#DejaVuSans-80"/>
       <use x="53.927734" xlink:href="#DejaVuSans-65"/>
       <use x="122.335938" xlink:href="#DejaVuSans-80"/>
       <use x="182.638672" xlink:href="#DejaVuSans-85"/>
       <use x="255.832031" xlink:href="#DejaVuSans-65"/>
       <use x="324.240234" xlink:href="#DejaVuSans-32"/>
       <use x="356.027344" xlink:href="#DejaVuSans-78"/>
       <use x="430.832031" xlink:href="#DejaVuSans-69"/>
       <use x="494.015625" xlink:href="#DejaVuSans-87"/>
       <use x="592.892578" xlink:href="#DejaVuSans-32"/>
       <use x="624.679688" xlink:href="#DejaVuSans-71"/>
       <use x="702.169922" xlink:href="#DejaVuSans-85"/>
       <use x="775.363281" xlink:href="#DejaVuSans-73"/>
       <use x="804.855469" xlink:href="#DejaVuSans-78"/>
       <use x="879.660156" xlink:href="#DejaVuSans-69"/>
       <use x="942.84375" xlink:href="#DejaVuSans-65"/>
      </g>
     </g>
    </g>
    <g id="ytick_28">
     <g id="line2d_33">
      <g>
       <use style="stroke:#000000;stroke-width:0.8;" x="135" xlink:href="#mcff6380000" y="131.7"/>
      </g>
     </g>
     <g id="text_33">
      <!-- SOUTH AFRICA -->
      <g transform="translate(53.340625 135.499219)scale(0.1 -0.1)">
       <use xlink:href="#DejaVuSans-83"/>
       <use x="63.476562" xlink:href="#DejaVuSans-79"/>
       <use x="142.1875" xlink:href="#DejaVuSans-85"/>
       <use x="215.380859" xlink:href="#DejaVuSans-84"/>
       <use x="276.464844" xlink:href="#DejaVuSans-72"/>
       <use x="351.660156" xlink:href="#DejaVuSans-32"/>
       <use x="383.447266" xlink:href="#DejaVuSans-65"/>
       <use x="451.855469" xlink:href="#DejaVuSans-70"/>
       <use x="509.375" xlink:href="#DejaVuSans-82"/>
       <use x="578.857422" xlink:href="#DejaVuSans-73"/>
       <use x="608.349609" xlink:href="#DejaVuSans-67"/>
       <use x="678.173828" xlink:href="#DejaVuSans-65"/>
      </g>
     </g>
    </g>
    <g id="ytick_29">
     <g id="line2d_34">
      <g>
       <use style="stroke:#000000;stroke-width:0.8;" x="135" xlink:href="#mcff6380000" y="113.58"/>
      </g>
     </g>
     <g id="text_34">
      <!-- AUSTRALIA -->
      <g transform="translate(72.632812 117.379219)scale(0.1 -0.1)">
       <use xlink:href="#DejaVuSans-65"/>
       <use x="68.408203" xlink:href="#DejaVuSans-85"/>
       <use x="141.601562" xlink:href="#DejaVuSans-83"/>
       <use x="205.078125" xlink:href="#DejaVuSans-84"/>
       <use x="266.162109" xlink:href="#DejaVuSans-82"/>
       <use x="331.644531" xlink:href="#DejaVuSans-65"/>
       <use x="400.052734" xlink:href="#DejaVuSans-76"/>
       <use x="455.765625" xlink:href="#DejaVuSans-73"/>
       <use x="485.257812" xlink:href="#DejaVuSans-65"/>
      </g>
     </g>
    </g>
    <g id="ytick_30">
     <g id="line2d_35">
      <g>
       <use style="stroke:#000000;stroke-width:0.8;" x="135" xlink:href="#mcff6380000" y="95.46"/>
      </g>
     </g>
     <g id="text_35">
      <!-- USA -->
      <g transform="translate(107.304688 99.259219)scale(0.1 -0.1)">
       <use xlink:href="#DejaVuSans-85"/>
       <use x="73.193359" xlink:href="#DejaVuSans-83"/>
       <use x="138.544922" xlink:href="#DejaVuSans-65"/>
      </g>
     </g>
    </g>
    <g id="text_36">
     <!-- Country -->
     <defs>
      <path d="M 30.609375 48.390625 
Q 23.390625 48.390625 19.1875 42.75 
Q 14.984375 37.109375 14.984375 27.296875 
Q 14.984375 17.484375 19.15625 11.84375 
Q 23.34375 6.203125 30.609375 6.203125 
Q 37.796875 6.203125 41.984375 11.859375 
Q 46.1875 17.53125 46.1875 27.296875 
Q 46.1875 37.015625 41.984375 42.703125 
Q 37.796875 48.390625 30.609375 48.390625 
z
M 30.609375 56 
Q 42.328125 56 49.015625 48.375 
Q 55.71875 40.765625 55.71875 27.296875 
Q 55.71875 13.875 49.015625 6.21875 
Q 42.328125 -1.421875 30.609375 -1.421875 
Q 18.84375 -1.421875 12.171875 6.21875 
Q 5.515625 13.875 5.515625 27.296875 
Q 5.515625 40.765625 12.171875 48.375 
Q 18.84375 56 30.609375 56 
z
" id="DejaVuSans-111"/>
      <path d="M 8.5 21.578125 
L 8.5 54.6875 
L 17.484375 54.6875 
L 17.484375 21.921875 
Q 17.484375 14.15625 20.5 10.265625 
Q 23.53125 6.390625 29.59375 6.390625 
Q 36.859375 6.390625 41.078125 11.03125 
Q 45.3125 15.671875 45.3125 23.6875 
L 45.3125 54.6875 
L 54.296875 54.6875 
L 54.296875 0 
L 45.3125 0 
L 45.3125 8.40625 
Q 42.046875 3.421875 37.71875 1 
Q 33.40625 -1.421875 27.6875 -1.421875 
Q 18.265625 -1.421875 13.375 4.4375 
Q 8.5 10.296875 8.5 21.578125 
z
M 31.109375 56 
z
" id="DejaVuSans-117"/>
      <path d="M 54.890625 33.015625 
L 54.890625 0 
L 45.90625 0 
L 45.90625 32.71875 
Q 45.90625 40.484375 42.875 44.328125 
Q 39.84375 48.1875 33.796875 48.1875 
Q 26.515625 48.1875 22.3125 43.546875 
Q 18.109375 38.921875 18.109375 30.90625 
L 18.109375 0 
L 9.078125 0 
L 9.078125 54.6875 
L 18.109375 54.6875 
L 18.109375 46.1875 
Q 21.34375 51.125 25.703125 53.5625 
Q 30.078125 56 35.796875 56 
Q 45.21875 56 50.046875 50.171875 
Q 54.890625 44.34375 54.890625 33.015625 
z
" id="DejaVuSans-110"/>
      <path d="M 18.3125 70.21875 
L 18.3125 54.6875 
L 36.8125 54.6875 
L 36.8125 47.703125 
L 18.3125 47.703125 
L 18.3125 18.015625 
Q 18.3125 11.328125 20.140625 9.421875 
Q 21.96875 7.515625 27.59375 7.515625 
L 36.8125 7.515625 
L 36.8125 0 
L 27.59375 0 
Q 17.1875 0 13.234375 3.875 
Q 9.28125 7.765625 9.28125 18.015625 
L 9.28125 47.703125 
L 2.6875 47.703125 
L 2.6875 54.6875 
L 9.28125 54.6875 
L 9.28125 70.21875 
z
" id="DejaVuSans-116"/>
      <path d="M 41.109375 46.296875 
Q 39.59375 47.171875 37.8125 47.578125 
Q 36.03125 48 33.890625 48 
Q 26.265625 48 22.1875 43.046875 
Q 18.109375 38.09375 18.109375 28.8125 
L 18.109375 0 
L 9.078125 0 
L 9.078125 54.6875 
L 18.109375 54.6875 
L 18.109375 46.1875 
Q 20.953125 51.171875 25.484375 53.578125 
Q 30.03125 56 36.53125 56 
Q 37.453125 56 38.578125 55.875 
Q 39.703125 55.765625 41.0625 55.515625 
z
" id="DejaVuSans-114"/>
      <path d="M 32.171875 -5.078125 
Q 28.375 -14.84375 24.75 -17.8125 
Q 21.140625 -20.796875 15.09375 -20.796875 
L 7.90625 -20.796875 
L 7.90625 -13.28125 
L 13.1875 -13.28125 
Q 16.890625 -13.28125 18.9375 -11.515625 
Q 21 -9.765625 23.484375 -3.21875 
L 25.09375 0.875 
L 2.984375 54.6875 
L 12.5 54.6875 
L 29.59375 11.921875 
L 46.6875 54.6875 
L 56.203125 54.6875 
z
" id="DejaVuSans-121"/>
     </defs>
     <g transform="translate(20.796875 378.063281)rotate(-90)scale(0.1 -0.1)">
      <use xlink:href="#DejaVuSans-67"/>
      <use x="69.824219" xlink:href="#DejaVuSans-111"/>
      <use x="131.005859" xlink:href="#DejaVuSans-117"/>
      <use x="194.384766" xlink:href="#DejaVuSans-110"/>
      <use x="257.763672" xlink:href="#DejaVuSans-116"/>
      <use x="296.972656" xlink:href="#DejaVuSans-114"/>
      <use x="338.085938" xlink:href="#DejaVuSans-121"/>
     </g>
    </g>
   </g>
   <g id="patch_33">
    <path d="M 135 630 
L 135 86.4 
" style="fill:none;stroke:#000000;stroke-linecap:square;stroke-linejoin:miter;stroke-width:0.8;"/>
   </g>
   <g id="patch_34">
    <path d="M 972 630 
L 972 86.4 
" style="fill:none;stroke:#000000;stroke-linecap:square;stroke-linejoin:miter;stroke-width:0.8;"/>
   </g>
   <g id="patch_35">
    <path d="M 135 630 
L 972 630 
" style="fill:none;stroke:#000000;stroke-linecap:square;stroke-linejoin:miter;stroke-width:0.8;"/>
   </g>
   <g id="patch_36">
    <path d="M 135 86.4 
L 972 86.4 
" style="fill:none;stroke:#000000;stroke-linecap:square;stroke-linejoin:miter;stroke-width:0.8;"/>
   </g>
   <g id="legend_1">
    <g id="patch_37">
     <path d="M 895.867188 625 
L 965 625 
Q 967 625 967 623 
L 967 609.321875 
Q 967 607.321875 965 607.321875 
L 895.867188 607.321875 
Q 893.867188 607.321875 893.867188 609.321875 
L 893.867188 623 
Q 893.867188 625 895.867188 625 
z
" style="fill:#ffffff;opacity:0.8;stroke:#cccccc;stroke-linejoin:miter;"/>
    </g>
    <g id="patch_38">
     <path d="M 897.867188 618.920313 
L 917.867188 618.920313 
L 917.867188 611.920313 
L 897.867188 611.920313 
z
" style="fill:#0000ff;"/>
    </g>
    <g id="text_37">
     <!-- Attacks -->
     <defs>
      <path d="M 34.28125 27.484375 
Q 23.390625 27.484375 19.1875 25 
Q 14.984375 22.515625 14.984375 16.5 
Q 14.984375 11.71875 18.140625 8.90625 
Q 21.296875 6.109375 26.703125 6.109375 
Q 34.1875 6.109375 38.703125 11.40625 
Q 43.21875 16.703125 43.21875 25.484375 
L 43.21875 27.484375 
z
M 52.203125 31.203125 
L 52.203125 0 
L 43.21875 0 
L 43.21875 8.296875 
Q 40.140625 3.328125 35.546875 0.953125 
Q 30.953125 -1.421875 24.3125 -1.421875 
Q 15.921875 -1.421875 10.953125 3.296875 
Q 6 8.015625 6 15.921875 
Q 6 25.140625 12.171875 29.828125 
Q 18.359375 34.515625 30.609375 34.515625 
L 43.21875 34.515625 
L 43.21875 35.40625 
Q 43.21875 41.609375 39.140625 45 
Q 35.0625 48.390625 27.6875 48.390625 
Q 23 48.390625 18.546875 47.265625 
Q 14.109375 46.140625 10.015625 43.890625 
L 10.015625 52.203125 
Q 14.9375 54.109375 19.578125 55.046875 
Q 24.21875 56 28.609375 56 
Q 40.484375 56 46.34375 49.84375 
Q 52.203125 43.703125 52.203125 31.203125 
z
" id="DejaVuSans-97"/>
      <path d="M 48.78125 52.59375 
L 48.78125 44.1875 
Q 44.96875 46.296875 41.140625 47.34375 
Q 37.3125 48.390625 33.40625 48.390625 
Q 24.65625 48.390625 19.8125 42.84375 
Q 14.984375 37.3125 14.984375 27.296875 
Q 14.984375 17.28125 19.8125 11.734375 
Q 24.65625 6.203125 33.40625 6.203125 
Q 37.3125 6.203125 41.140625 7.25 
Q 44.96875 8.296875 48.78125 10.40625 
L 48.78125 2.09375 
Q 45.015625 0.34375 40.984375 -0.53125 
Q 36.96875 -1.421875 32.421875 -1.421875 
Q 20.0625 -1.421875 12.78125 6.34375 
Q 5.515625 14.109375 5.515625 27.296875 
Q 5.515625 40.671875 12.859375 48.328125 
Q 20.21875 56 33.015625 56 
Q 37.15625 56 41.109375 55.140625 
Q 45.0625 54.296875 48.78125 52.59375 
z
" id="DejaVuSans-99"/>
      <path d="M 9.078125 75.984375 
L 18.109375 75.984375 
L 18.109375 31.109375 
L 44.921875 54.6875 
L 56.390625 54.6875 
L 27.390625 29.109375 
L 57.625 0 
L 45.90625 0 
L 18.109375 26.703125 
L 18.109375 0 
L 9.078125 0 
z
" id="DejaVuSans-107"/>
      <path d="M 44.28125 53.078125 
L 44.28125 44.578125 
Q 40.484375 46.53125 36.375 47.5 
Q 32.28125 48.484375 27.875 48.484375 
Q 21.1875 48.484375 17.84375 46.4375 
Q 14.5 44.390625 14.5 40.28125 
Q 14.5 37.15625 16.890625 35.375 
Q 19.28125 33.59375 26.515625 31.984375 
L 29.59375 31.296875 
Q 39.15625 29.25 43.1875 25.515625 
Q 47.21875 21.78125 47.21875 15.09375 
Q 47.21875 7.46875 41.1875 3.015625 
Q 35.15625 -1.421875 24.609375 -1.421875 
Q 20.21875 -1.421875 15.453125 -0.5625 
Q 10.6875 0.296875 5.421875 2 
L 5.421875 11.28125 
Q 10.40625 8.6875 15.234375 7.390625 
Q 20.0625 6.109375 24.8125 6.109375 
Q 31.15625 6.109375 34.5625 8.28125 
Q 37.984375 10.453125 37.984375 14.40625 
Q 37.984375 18.0625 35.515625 20.015625 
Q 33.0625 21.96875 24.703125 23.78125 
L 21.578125 24.515625 
Q 13.234375 26.265625 9.515625 29.90625 
Q 5.8125 33.546875 5.8125 39.890625 
Q 5.8125 47.609375 11.28125 51.796875 
Q 16.75 56 26.8125 56 
Q 31.78125 56 36.171875 55.265625 
Q 40.578125 54.546875 44.28125 53.078125 
z
" id="DejaVuSans-115"/>
     </defs>
     <g transform="translate(925.867188 618.920313)scale(0.1 -0.1)">
      <use xlink:href="#DejaVuSans-65"/>
      <use x="66.658203" xlink:href="#DejaVuSans-116"/>
      <use x="105.867188" xlink:href="#DejaVuSans-116"/>
      <use x="145.076172" xlink:href="#DejaVuSans-97"/>
      <use x="206.355469" xlink:href="#DejaVuSans-99"/>
      <use x="261.335938" xlink:href="#DejaVuSans-107"/>
      <use x="319.246094" xlink:href="#DejaVuSans-115"/>
     </g>
    </g>
   </g>
  </g>
 </g>
 <defs>
  <clipPath id="p3fe766427f">
   <rect height="543.6" width="837" x="135" y="86.4"/>
  </clipPath>
 </defs>
</svg>
